<svg width="42" height="43" viewBox="0 0 42 43" fill="none" xmlns="http://www.w3.org/2000/svg">
    <style type="text/css">
        :root {
        --icon-fill: black;
        }
        @media (prefers-color-scheme: dark) {
        :root {
        --icon-fill: white;
        }
        }
        path {
        fill: var(--icon-fill);
        }
    </style>
    <path d="M2.27206 35.2607H2.16375L2.27206 35.3144V35.2607ZM2 33.6298H5.09886V35.5863C5.09886 37.1081 5.29828 38.3034 5.69714 39.173C6.09599 40.0787 6.63969 40.5319 7.32866 40.5319C8.01763 40.5319 8.56047 40.0791 8.95932 39.173C9.35818 38.3038 9.5576 37.1442 9.5576 35.6946V23.739C9.5576 22.9055 9.35818 22.2348 8.95932 21.7278C8.52479 21.2209 7.96304 20.9669 7.27408 20.9669H5.53425C5.17192 20.9669 4.8096 20.9489 4.44728 20.9132V20.4234H7.27408C7.96304 20.4234 8.52436 20.1154 8.95932 19.4997C9.35818 18.884 9.5576 18.069 9.5576 17.0542V7.32583C9.5576 5.87708 9.35818 4.69944 8.95932 3.79375C8.52479 2.92459 7.96304 2.48979 7.27408 2.48979C6.62164 2.48979 6.09599 2.92459 5.69714 3.79375C5.29828 4.69944 5.09886 5.91317 5.09886 7.43496V9.39155H2V7.65236C2 7.00016 2.09069 6.34797 2.27206 5.69577C2.59828 4.5366 3.19656 3.63049 4.06648 2.97829C4.93639 2.3261 6.00531 2 7.27408 2C8.90474 2 10.2096 2.52545 11.1887 3.57635C12.1669 4.62726 12.6565 6.0223 12.6565 7.76106V16.5107C12.6565 17.5616 12.3483 18.4312 11.7324 19.1199C11.08 19.8443 10.2096 20.3517 9.12222 20.6417C10.2096 20.8591 11.08 21.2574 11.7324 21.8374C12.3483 22.4531 12.6565 23.1959 12.6565 24.0651V35.2607C12.6565 37.036 12.185 38.449 11.2424 39.4999C10.2638 40.5865 8.95932 41.13 7.32866 41.13C6.05989 41.13 4.99055 40.7859 4.1202 40.098C3.21461 39.4093 2.59828 38.4856 2.27206 37.326C2.23553 37.326 2.19943 37.2353 2.16375 37.054C2.12722 36.8731 2.10917 36.6561 2.10917 36.4022C2.07264 36.1487 2.05458 35.9129 2.05458 35.695C2.01805 35.4781 2 35.3333 2 35.2611V33.6302L2 33.6298Z"
    />
    <path d="M26.7368 8.03302H26.8997L26.7368 7.97846V8.03302ZM19.5063 35.5863C19.5063 37.1081 19.7057 38.3219 20.1046 39.2275C20.5034 40.1332 21.0286 40.5865 21.6806 40.5865C22.4061 40.5865 23.004 40.1156 23.475 39.173C23.9104 38.2312 24.1279 36.9999 24.1279 35.4781V32.2708C24.0914 30.9673 24.0548 29.699 24.0187 28.4668C23.9831 27.0176 23.9465 25.5319 23.9104 24.0101C23.8739 22.597 23.7652 21.4559 23.5846 20.5863C23.4033 19.7171 23.1493 19.2823 22.8235 19.2823C21.8079 19.2823 21.0106 19.7171 20.4308 20.5863C19.8149 21.4559 19.5067 22.597 19.5067 24.0101V35.5863H19.5063ZM27.0089 9.71764H23.91C23.91 9.39155 23.9281 9.02893 23.9646 8.63108V7.59822C23.9646 6.07644 23.7652 4.84465 23.3663 3.90245C22.9309 2.96068 22.3692 2.48979 21.6802 2.48979C21.0282 2.48979 20.503 2.96068 20.1041 3.90245C19.7053 4.84465 19.5058 6.07644 19.5058 7.59822V22.0002C19.7594 20.9858 20.1944 20.1884 20.8103 19.6084C21.3897 19.0293 22.1147 18.7392 22.9851 18.7392C24.1808 18.7392 25.159 19.2647 25.9202 20.3156C26.6457 21.4022 27.008 22.8333 27.008 24.6086C26.9715 25.9851 26.9534 27.3256 26.9534 28.63V35.0433C26.9534 36.8907 26.4819 38.3584 25.5394 39.4454C24.5607 40.5685 23.2743 41.13 21.6793 41.13C20.0844 41.13 18.8164 40.5865 17.8739 39.4999C16.8952 38.413 16.4061 36.9633 16.4061 35.1515V7.92389C16.4061 6.14862 16.8952 4.71748 17.8739 3.63092C18.8173 2.54393 20.0861 2 21.6806 2C23.2752 2 24.617 2.54393 25.5953 3.63092C26.5378 4.71748 27.0093 6.18513 27.0093 8.03302V9.71764H27.0089Z"
    />
    <path d="M30.0526 35.2607H29.9443L30.0526 35.3144V35.2607ZM29.7805 33.6298H32.8794V35.5863C32.8794 37.1081 33.0788 38.3034 33.4777 39.173C33.8765 40.0787 34.4202 40.5319 35.1092 40.5319C35.7981 40.5319 36.341 40.0791 36.7398 39.173C37.1387 38.3038 37.3381 37.1442 37.3381 35.6946V23.739C37.3381 22.9055 37.1387 22.2348 36.7398 21.7278C36.3053 21.2209 35.7436 20.9669 35.0546 20.9669H33.3148C32.9524 20.9669 32.5901 20.9489 32.2278 20.9132V20.4234H35.0546C35.7436 20.4234 36.3049 20.1154 36.7398 19.4997C37.1387 18.884 37.3381 18.069 37.3381 17.0542V7.32583C37.3381 5.87708 37.1387 4.69944 36.7398 3.79375C36.3053 2.92459 35.7436 2.48979 35.0546 2.48979C34.4022 2.48979 33.8765 2.92459 33.4777 3.79375C33.0788 4.69944 32.8794 5.91317 32.8794 7.43496V9.39155H29.7805V7.65236C29.7805 7.00016 29.8712 6.34797 30.0526 5.69577C30.3788 4.5366 30.9771 3.63049 31.847 2.97829C32.7165 2.3261 33.7858 2 35.0546 2C36.6853 2 37.9901 2.52545 38.9692 3.57635C39.9474 4.62726 40.437 6.0223 40.437 7.76106V16.5107C40.437 17.5616 40.1288 18.4312 39.5129 19.1199C38.8605 19.8443 37.9901 20.3517 36.9027 20.6417C37.9901 20.8591 38.8605 21.2574 39.5129 21.8374C40.1288 22.4531 40.437 23.1959 40.437 24.0651V35.2607C40.437 37.036 39.9655 38.449 39.0229 39.4999C38.0443 40.5865 36.7398 41.13 35.1092 41.13C33.8404 41.13 32.7711 40.7859 31.9007 40.098C30.9951 39.4093 30.3788 38.4856 30.0526 37.326C30.016 37.326 29.9799 37.2353 29.9443 37.054C29.9077 36.8731 29.8897 36.6561 29.8897 36.4022C29.8532 36.1487 29.8351 35.9129 29.8351 35.695C29.7986 35.4781 29.7805 35.3333 29.7805 35.2611V33.6302V33.6298Z"
    />
</svg>
